<?xml version="1.0" standalone="no"?>
<!DOCTYPE svg PUBLIC "-//W3C//DTD SVG 20010904//EN"
 "http://www.w3.org/TR/2001/REC-SVG-20010904/DTD/svg10.dtd">
<svg version="1.0" xmlns="http://www.w3.org/2000/svg"
 width="512.000000pt" height="512.000000pt" viewBox="0 0 512.000000 512.000000"
 preserveAspectRatio="xMidYMid meet">

<g transform="translate(0.000000,512.000000) scale(0.100000,-0.100000)"
fill="#000000" stroke="none">
<path d="M710 4473 c-58 -22 -85 -94 -55 -148 25 -48 50 -55 206 -55 163 0
201 -11 224 -62 8 -18 91 -496 185 -1061 94 -566 179 -1053 190 -1083 58 -166
197 -295 365 -339 89 -23 1951 -23 2040 0 166 44 304 168 364 331 31 83 254
1425 248 1494 -9 108 -80 210 -182 260 l-50 25 -1437 3 c-791 1 -1438 3 -1438
5 0 1 -16 94 -35 206 -38 229 -59 285 -127 346 -78 71 -111 80 -308 82 -96 1
-182 0 -190 -4z m3495 -858 c30 -15 45 -35 58 -77 3 -9 -46 -325 -109 -702
-85 -510 -120 -699 -136 -734 -29 -60 -89 -121 -153 -152 l-50 -25 -970 0
-970 0 -52 27 c-68 36 -120 89 -149 152 -18 39 -52 224 -144 773 -66 397 -120
729 -120 738 0 13 150 15 1381 15 1225 0 1385 -2 1414 -15z"/>
<path d="M2005 1472 c-120 -41 -205 -117 -258 -230 -39 -83 -49 -206 -23 -293
91 -314 491 -411 715 -174 217 229 128 590 -172 695 -72 25 -192 26 -262 2z
m224 -218 c132 -66 157 -229 51 -334 -105 -106 -268 -81 -334 51 -43 88 -30
176 39 244 68 69 156 83 244 39z"/>
<path d="M3285 1472 c-120 -41 -205 -117 -258 -230 -39 -83 -49 -206 -23 -293
91 -314 491 -411 715 -174 217 229 128 590 -172 695 -72 25 -192 26 -262 2z
m224 -218 c132 -66 157 -229 51 -334 -105 -106 -268 -81 -334 51 -43 88 -30
176 39 244 68 69 156 83 244 39z"/>
</g>
</svg>
