<?xml version="1.0" standalone="no"?>
<!DOCTYPE svg PUBLIC "-//W3C//DTD SVG 20010904//EN"
 "http://www.w3.org/TR/2001/REC-SVG-20010904/DTD/svg10.dtd">
<svg version="1.0" xmlns="http://www.w3.org/2000/svg"
 width="512.000000pt" height="512.000000pt" viewBox="0 0 512.000000 512.000000"
 preserveAspectRatio="xMidYMid meet">

<g transform="translate(0.000000,512.000000) scale(0.100000,-0.100000)"
fill="#000000" stroke="none">
<path d="M2398 5105 c-289 -55 -531 -244 -655 -511 -64 -140 -75 -202 -80
-461 l-5 -233 151 0 151 0 0 188 c0 218 13 292 66 401 46 93 151 203 245 254
81 45 200 77 289 77 85 0 203 -30 283 -72 92 -48 205 -165 251 -258 53 -110
66 -184 66 -402 l0 -188 151 0 151 0 -4 233 c-4 197 -8 244 -27 312 -85 317
-331 563 -646 646 -104 27 -282 34 -387 14z"/>
<path d="M388 3579 c-23 -12 -46 -35 -58 -59 -20 -39 -20 -56 -20 -1440 0
-1529 -2 -1475 57 -1615 75 -178 230 -333 409 -408 140 -59 68 -57 1784 -57
1695 0 1638 -2 1774 51 172 68 333 223 412 398 62 139 58 26 61 1598 3 1425 3
1433 -17 1473 -13 26 -34 47 -60 60 -39 20 -54 20 -2172 20 -2104 -1 -2134 -1
-2170 -21z m2927 -744 c215 -41 406 -205 480 -409 28 -80 205 -1121 204 -1203
-1 -122 -63 -257 -157 -344 -189 -173 -479 -169 -661 10 -51 49 -72 83 -160
259 l-101 202 -358 0 -357 0 -99 -196 c-111 -221 -164 -289 -264 -342 -146
-78 -298 -82 -449 -11 -157 74 -270 250 -272 422 -1 75 176 1122 203 1198 72
208 257 367 481 414 95 20 1406 20 1510 0z"/>
<path d="M1838 2536 c-102 -28 -193 -114 -233 -220 -23 -63 -187 -1064 -182
-1109 11 -85 95 -157 183 -157 22 0 60 10 84 22 44 22 48 29 176 278 119 231
135 257 170 277 l39 23 495 -3 495 -2 32 -23 c25 -18 60 -76 152 -261 133
-264 156 -295 237 -307 61 -9 116 9 159 51 69 70 70 54 -31 660 -68 408 -96
552 -113 588 -32 66 -101 134 -169 165 l-57 27 -695 2 c-539 1 -706 -1 -742
-11z m343 -308 c41 -23 79 -84 79 -128 0 -73 -78 -150 -151 -150 -84 1 -153
78 -146 161 10 112 121 172 218 117z m900 0 c41 -23 79 -84 79 -128 0 -73 -78
-150 -151 -150 -84 1 -153 78 -146 161 10 112 121 172 218 117z"/>
</g>
</svg>
